<?xml version="1.0" encoding="utf-8"?>
<svg xmlns="http://www.w3.org/2000/svg"
	xmlns:xlink="http://www.w3.org/1999/xlink"
	width="8px" height="16px" viewBox="0 0 8 16">
<path fillRule="evenodd" d="M 7.99 0.01C 7.99 0.94 7.99 2.59 7.99 2.59 7.99 2.59 6.09 2.4 5.62 3.13 5.36 3.53 5.51 4.69 5.49 5.53 6.32 5.53 7.18 5.53 8.01 5.53 7.8 6.51 7.64 7.17 7.49 8.01 6.77 8.01 5.48 8.01 5.48 8.01 5.48 8.01 5.48 16.02 5.48 16.02 5.48 16.02 3.1 16.02 1.99 16.02 1.99 13.55 1.99 10.67 1.99 8.05 1.45 8.05 1.05 8.05 0.5 8.05 0.5 7.12 0.5 6.45 0.5 5.53 1.03 5.53 1.45 5.53 1.97 5.53 2.05 3.69 2.08 1.86 2.99 0.93 4.02-0.11 5 0.01 7.99 0.01Z" fill="rgb(149,225,211)"/></svg>