<?xml version="1.0" encoding="utf-8"?>
<svg xmlns="http://www.w3.org/2000/svg"
	xmlns:xlink="http://www.w3.org/1999/xlink"
	width="16px" height="14px" viewBox="0 0 16 14">
<path fillRule="evenodd" d="M 13.5 3.72C 13.5 3.72 13.5 6.16 13.5 6.16 13.5 6.16 12.5 6.16 12.5 6.16 12.5 6.16 12.5 3.72 12.5 3.72 12.5 3.72 10 3.72 10 3.72 10 3.72 10 2.72 10 2.72 10 2.72 12.5 2.72 12.5 2.72 12.5 2.72 12.5 0.28 12.5 0.28 12.5 0.28 13.5 0.28 13.5 0.28 13.5 0.28 13.5 2.72 13.5 2.72 13.5 2.72 16 2.72 16 2.72 16 2.72 16 3.72 16 3.72 16 3.72 13.5 3.72 13.5 3.72ZM 6.59 1.25C 7.47 1.74 7.99 2.53 7.99 3.58 7.99 4.45 7.45 5.14 6.75 5.68 6.07 6.2 5.94 6.42 5.94 6.86 5.94 7.24 6.67 7.89 7.05 8.15 8.17 8.93 8.5 9.65 8.5 10.85 8.5 12.34 7.05 14.02 4.38 14.02 2.04 14.02-0 12.9-0 11.4-0 9.88 1.87 8.41 4.21 8.41 4.46 8.41 4.7 8.4 4.94 8.4 4.62 8.09 4.37 7.71 4.37 7.25 4.37 6.98 4.46 6.7 4.58 6.46 4.45 6.47 4.32 6.45 4.19 6.45 2.26 6.45 0.98 5.06 0.98 3.4 0.98 1.76 2.76 0.26 4.65 0.26 5.7 0.26 8.87 0.26 8.87 0.26 8.87 0.26 7.92 1.25 7.92 1.25 7.92 1.25 6.59 1.25 6.59 1.25ZM 4.66 8.8C 3.04 8.78 1.58 9.77 1.58 10.95 1.58 12.16 2.75 13.05 4.37 13.05 6.65 13.05 7.45 12.23 7.45 11.02 7.45 10.87 7.43 10.73 7.39 10.59 7.22 9.9 6.58 9.57 5.71 8.97 5.39 8.86 5.03 8.8 4.66 8.8ZM 6.48 3.6C 6.29 2.19 5.21 1.07 4.12 1.04 3.03 1.01 2.3 2.08 2.49 3.48 2.68 4.88 3.71 6.05 4.8 6.08 5.89 6.11 6.66 5 6.48 3.6Z" fill="rgb(149,225,211)"/></svg>