<?xml version="1.0" encoding="utf-8"?>
<svg xmlns="http://www.w3.org/2000/svg"
	xmlns:xlink="http://www.w3.org/1999/xlink"
	width="83px" height="83px" viewBox="0 0 83 83">
<path fillRule="evenodd" d="M 83.01 55C 83.01 55 71.91 55 71.91 55 71.91 55 58.83 41.5 58.83 41.5 58.83 41.5 71.91 28 71.91 28 71.91 28 83.01 28 83.01 28 83.01 28 69.93 41.5 69.93 41.5 69.93 41.5 83.01 55 83.01 55ZM 66.17 55C 66.17 55 55.07 55 55.07 55 55.07 55 41.99 41.5 41.99 41.5 41.99 41.5 55.07 28 55.07 28 55.07 28 66.17 28 66.17 28 66.17 28 53.09 41.5 53.09 41.5 53.09 41.5 66.17 55 66.17 55ZM 28 27.93C 28 27.93 28 16.83 28 16.83 28 16.83 41.5 29.91 41.5 29.91 41.5 29.91 55 16.83 55 16.83 55 16.83 55 27.93 55 27.93 55 27.93 41.5 41.01 41.5 41.01 41.5 41.01 28 27.93 28 27.93ZM 28 11.09C 28 11.09 28-0.01 28-0.01 28-0.01 41.5 13.07 41.5 13.07 41.5 13.07 55-0.01 55-0.01 55-0.01 55 11.09 55 11.09 55 11.09 41.5 24.17 41.5 24.17 41.5 24.17 28 11.09 28 11.09ZM 27.93 55C 27.93 55 16.83 55 16.83 55 16.83 55 29.91 41.5 29.91 41.5 29.91 41.5 16.83 28 16.83 28 16.83 28 27.93 28 27.93 28 27.93 28 41.01 41.5 41.01 41.5 41.01 41.5 27.93 55 27.93 55ZM 11.09 55C 11.09 55-0.01 55-0.01 55-0.01 55 13.07 41.5 13.07 41.5 13.07 41.5-0.01 28-0.01 28-0.01 28 11.09 28 11.09 28 11.09 28 24.17 41.5 24.17 41.5 24.17 41.5 11.09 55 11.09 55ZM 55 55.07C 55 55.07 55 66.17 55 66.17 55 66.17 41.5 53.09 41.5 53.09 41.5 53.09 28 66.17 28 66.17 28 66.17 28 55.07 28 55.07 28 55.07 41.5 41.99 41.5 41.99 41.5 41.99 55 55.07 55 55.07ZM 55 71.91C 55 71.91 55 83.01 55 83.01 55 83.01 41.5 69.93 41.5 69.93 41.5 69.93 28 83.01 28 83.01 28 83.01 28 71.91 28 71.91 28 71.91 41.5 58.83 41.5 58.83 41.5 58.83 55 71.91 55 71.91Z" fill="rgb(245,197,5)"/></svg>