<?xml version="1.0" encoding="utf-8"?>
<svg xmlns="http://www.w3.org/2000/svg"
	xmlns:xlink="http://www.w3.org/1999/xlink"
	width="13px" height="16px" viewBox="0 0 13 16">
<path fillRule="evenodd" d="M 5.84 10.42C 5.71 10.94 5.58 11.49 5.45 12.02 5.31 12.55 5.19 13.08 5 13.57 4.67 14.37 4.26 15.14 3.72 15.77 3.36 16.19 3.44 16.02 3.33 16 3.25 15.98 3.24 15.9 3.22 15.78 3.13 15.14 3.19 14.41 3.23 13.69 3.26 12.88 3.44 12.2 3.6 11.52 3.9 10.23 4.19 8.97 4.49 7.67 4.51 7.59 4.57 7.44 4.55 7.39 4.41 7.03 4.32 6.71 4.28 6.33 4.24 5.9 4.27 5.49 4.37 5.12 4.54 4.46 4.94 3.87 5.55 3.66 5.94 3.52 6.37 3.58 6.64 3.74 6.91 3.9 7.09 4.15 7.18 4.52 7.27 4.9 7.2 5.36 7.13 5.7 6.96 6.46 6.74 7.03 6.54 7.77 6.44 8.13 6.33 8.51 6.42 8.9 6.51 9.26 6.7 9.51 6.95 9.7 7.22 9.89 7.53 10 7.97 9.98 8.74 9.95 9.27 9.46 9.63 9 10.2 8.26 10.54 7.26 10.67 6.07 10.71 5.69 10.75 5.25 10.72 4.81 10.66 4.01 10.41 3.37 10.01 2.86 9.63 2.39 9.1 2.01 8.44 1.8 7.79 1.58 6.9 1.51 6.1 1.65 4.65 1.9 3.63 2.72 3.03 3.86 2.71 4.45 2.5 5.14 2.5 5.99 2.5 6.65 2.67 7.16 2.93 7.55 3.01 7.68 3.13 7.78 3.22 7.93 3.33 8.13 3.2 8.43 3.14 8.65 3.07 8.92 3.06 9.29 2.75 9.29 2.63 9.29 2.46 9.2 2.36 9.14 1.54 8.69 1.04 7.87 0.84 6.81 0.72 6.16 0.72 5.41 0.84 4.78 0.96 4.18 1.18 3.62 1.43 3.17 1.94 2.23 2.68 1.48 3.59 0.94 4.29 0.53 5.07 0.24 6.03 0.1 6.35 0.05 6.68 0.04 7.03 0.02 8.08-0.03 9.02 0.21 9.74 0.52 10.49 0.86 11.09 1.31 11.6 1.87 12.12 2.44 12.51 3.1 12.75 3.93 12.87 4.37 13 4.83 13 5.36 13 5.9 12.88 6.37 12.8 6.84 12.51 8.61 11.67 10.06 10.4 10.88 10.1 11.08 9.73 11.26 9.31 11.39 8.89 11.51 8.42 11.6 7.91 11.56 7.41 11.53 7.01 11.39 6.67 11.2 6.33 11.01 6.05 10.78 5.84 10.42Z" fill="rgb(149,225,211)"/></svg>