<?xml version="1.0" encoding="utf-8"?>
<svg xmlns="http://www.w3.org/2000/svg"
	xmlns:xlink="http://www.w3.org/1999/xlink"
	width="19px" height="19px" viewBox="0 0 19 19">
<path fillRule="evenodd" d="M 13.96 1.58C 13 2.53 13 4.08 13.96 5.03 14.91 5.99 16.46 5.99 17.42 5.03 17.42 5.03 18.82 3.63 18.82 3.63 18.92 4.04 19 4.45 19 4.88 19 7.58 16.81 9.77 14.11 9.77 13.67 9.77 13.25 9.69 12.84 9.58 12.83 9.6 12.82 9.61 12.81 9.63 12.81 9.63 4.16 18.26 4.16 18.26 3.2 19.22 1.65 19.22 0.7 18.26-0.26 17.31-0.26 15.76 0.7 14.81 0.7 14.81 9.35 6.18 9.35 6.18 9.36 6.16 9.38 6.16 9.4 6.14 9.29 5.74 9.21 5.32 9.21 4.88 9.21 2.19 11.4-0 14.11-0 14.54-0 14.96 0.07 15.36 0.18 15.36 0.18 13.96 1.58 13.96 1.58ZM 2.48 15.87C 2.15 15.87 1.87 16.14 1.87 16.48 1.87 16.82 2.15 17.09 2.48 17.09 2.82 17.09 3.1 16.82 3.1 16.48 3.1 16.14 2.82 15.87 2.48 15.87Z" fill="rgb(184,148,2)"/></svg>