<?xml version="1.0" encoding="utf-8"?>
<svg xmlns="http://www.w3.org/2000/svg"
	xmlns:xlink="http://www.w3.org/1999/xlink"
	width="10px" height="16px" viewBox="0 0 10 16">
<path fillRule="evenodd" d="M 10.01 15.15C 9.33 15.47 8.71 15.69 8.16 15.82 7.61 15.95 7.01 16.02 6.37 16.02 5.64 16.02 5.21 15.93 4.65 15.74 4.09 15.56 3.62 15.29 3.22 14.95 2.83 14.61 2.55 14.24 2.4 13.86 2.25 13.47 2.17 12.92 2.17 12.18 2.17 12.18 2.17 6.57 2.17 6.57 2.17 6.57 0.01 6.57 0.01 6.57 0.01 6.57 0.01 4.3 0.01 4.3 0.63 4.1 1.36 3.8 1.8 3.42 2.25 3.04 2.61 2.58 2.88 2.05 3.15 1.51 3.33 0.83 3.44 0.01 3.44 0.01 5.7 0.01 5.7 0.01 5.7 0.01 5.7 3.71 5.7 3.71 5.7 3.71 9.38 3.71 9.38 3.71 9.38 3.71 9.38 6.57 9.38 6.57 9.38 6.57 5.7 6.57 5.7 6.57 5.7 6.57 5.7 10.67 5.7 10.67 5.7 11.6 5.69 12.14 5.79 12.4 5.88 12.66 6.13 12.93 6.39 13.09 6.75 13.3 7.15 13.41 7.6 13.41 8.41 13.41 9.21 13.15 10.01 12.62 10.01 12.62 10.01 15.15 10.01 15.15Z" fill="rgb(149,225,211)"/></svg>