<?xml version="1.0" encoding="utf-8"?>
<svg xmlns="http://www.w3.org/2000/svg"
	xmlns:xlink="http://www.w3.org/1999/xlink"
	width="32px" height="23px" viewBox="0 0 32 23">
<path fillRule="evenodd" d="M 31.95 21.5C 31.95 21.5 31.95 21.51 31.95 21.51 31.95 22.05 31.5 22.5 30.96 22.5 30.96 22.5 23.54 22.5 23.54 22.5 24.1 22.37 24.51 21.88 24.51 21.29 24.51 21.29 24.51 21.29 24.51 21.29 24.51 21.29 24.52 21.29 24.52 21.29 24.52 21.29 24.52 16.79 21.21 15.15 19.8 14.45 19.71 14.58 19.01 14.42 19.01 14.42 19.03 12.47 19.03 12.47 19.03 12.47 18.26 11.88 18.02 10.04 17.53 10.17 17.38 9.47 17.35 9.02 17.32 8.59 17.07 7.24 17.66 7.36 17.54 6.46 17.45 5.65 17.49 5.22 17.64 3.7 19.1 2.12 21.35 2.01 24 2.12 25.05 3.7 25.2 5.21 25.24 5.65 25.15 6.46 25.03 7.36 25.61 7.24 25.36 8.59 25.33 9.02 25.3 9.47 25.14 10.17 24.66 10.03 24.42 11.87 23.65 12.46 23.65 12.46 23.65 12.46 23.67 14.4 23.67 14.4 23.67 14.4 24.15 14.68 26.21 15.53 28.27 16.38 27.63 15.75 29.3 16.58 31.95 17.89 31.95 21.5 31.95 21.5 31.95 21.5 31.95 21.5 31.95 21.5ZM 17.02 14.84C 19.29 15.78 18.58 15.08 20.42 15.99 23.33 17.43 23.33 21.41 23.33 21.41 23.33 21.41 23.33 21.41 23.33 21.41 23.33 21.41 23.33 21.41 23.33 21.41 23.33 22.01 22.84 22.5 22.24 22.5 22.24 22.5 1.09 22.5 1.09 22.5 0.49 22.5-0 22.01-0 21.41-0 21.41 0 21.41 0 21.41 0 21.41-0 21.41-0 21.41-0 21.41-0 17.43 2.91 15.99 4.75 15.08 4.04 15.82 6.31 14.88 8.57 13.95 9.1 13.62 9.1 13.62 9.1 13.62 9.13 11.47 9.13 11.47 9.13 11.47 8.28 10.82 8.01 8.8 7.48 8.95 7.31 8.18 7.28 7.69 7.25 7.21 6.97 5.73 7.62 5.86 7.49 4.87 7.39 3.98 7.44 3.5 7.6 1.84 9.21 0.1 11.68-0.02 14.59 0.1 15.75 1.84 15.91 3.5 15.96 3.97 15.85 4.87 15.72 5.86 16.37 5.73 16.08 7.21 16.05 7.68 16.02 8.18 15.85 8.95 15.32 8.79 15.05 10.82 14.21 11.46 14.21 11.46 14.21 11.46 14.23 13.6 14.23 13.6 14.23 13.6 14.76 13.91 17.02 14.84Z" fill="rgb(255,255,255)"/></svg>