<?xml version="1.0" encoding="utf-8"?>
<svg xmlns="http://www.w3.org/2000/svg"
	xmlns:xlink="http://www.w3.org/1999/xlink"
	width="21px" height="19px" viewBox="0 0 21 19">
<path fillRule="evenodd" d="M-0 19C-0 19 3.55 13.82 3.55 13.82 3.55 13.82 8 13.82 8 13.82 8 13.82 13.06 13.82 13.06 13.82 13.06 13.82 17.51 13.82 17.51 13.82 17.51 13.82 21 19 21 19 21 19-0 19-0 19ZM 10.53 12.95C 7.64 12.95 5.29 9.77 5.29 6.91 5.29 6.91 5.29 5.18 5.29 5.18 5.29 2.32 7.64-0 10.53-0 13.42-0 15.76 2.32 15.76 5.18 15.76 5.18 15.76 6.91 15.76 6.91 15.76 9.77 13.42 12.95 10.53 12.95Z" fill="rgb(185,147,3)"/></svg>