<?xml version="1.0" encoding="utf-8"?>
<svg xmlns="http://www.w3.org/2000/svg"
	xmlns:xlink="http://www.w3.org/1999/xlink"
	width="24px" height="18px" viewBox="0 0 24 18">
<path fillRule="evenodd" d="M 23.74 17.3C 23.74 17.3 15.46 9.02 15.46 9.02 15.46 9.02 21.58 2.9 21.58 2.9 21.58 2.9 23.76 0.73 23.76 0.73 23.9 0.96 24 1.21 24 1.5 24 1.5 24 16.5 24 16.5 24 16.8 23.89 17.06 23.74 17.3ZM 21.05 2.37C 21.05 2.37 18.26 5.16 18.26 5.16 18.26 5.16 12.91 10.51 12.91 10.51 12.91 10.51 11.98 11.45 11.98 11.45 11.98 11.45 2.95 2.41 2.95 2.41 2.95 2.41 1.45 0.91 1.45 0.91 1.45 0.91 0.76 0.23 0.76 0.23 0.98 0.1 1.22-0 1.5-0 1.5-0 22.5-0 22.5-0 22.76-0 23 0.09 23.22 0.21 23.22 0.21 22.46 0.96 22.46 0.96 22.46 0.96 21.05 2.37 21.05 2.37ZM 0.91 1.45C 0.91 1.45 8.47 9 8.47 9 8.47 9 0.23 17.24 0.23 17.24 0.1 17.02-0 16.78-0 16.5-0 16.5-0 1.5-0 1.5-0 1.22 0.1 0.98 0.23 0.76 0.23 0.76 0.91 1.45 0.91 1.45 0.91 1.45 0.91 1.45 0.91 1.45ZM 9 9.53C 9 9.53 9.32 9.85 9.32 9.85 9.32 9.85 9.43 9.96 9.43 9.96 9.43 9.96 10.46 10.99 10.46 10.99 10.46 10.99 11.96 12.49 11.96 12.49 11.96 12.49 12.02 12.43 12.02 12.43 12.02 12.43 12.04 12.44 12.04 12.44 12.04 12.44 13.45 11.04 13.45 11.04 13.45 11.04 14.93 9.55 14.93 9.55 14.93 9.55 23.19 17.81 23.19 17.81 22.98 17.92 22.75 18 22.5 18 22.5 18 1.5 18 1.5 18 1.22 18 0.98 17.9 0.76 17.77 0.76 17.77 9 9.53 9 9.53Z" fill="rgb(185,147,3)"/></svg>